<svg data-v-423bf9ae="" xmlns="http://www.w3.org/2000/svg" viewBox="0 0 262 90" class="iconLeft"><!----><!----><!----><g data-v-423bf9ae="" id="5f987efb-c493-4060-8852-8beb096ae173" fill="black" transform="matrix(5.71973320392212,0,0,5.71973320392212,102.96472063671719,-3.817922022713269)"><path d="M8.81 3.92L7.28 3.92L7.28 9.87C7.28 10.16 7.28 10.43 7.25 10.65C7.15 11.82 6.41 12.60 5.01 12.60C3.63 12.60 2.88 11.82 2.79 10.65C2.76 10.43 2.76 10.16 2.76 9.87L2.76 3.92L1.23 3.92L1.23 9.84C1.23 10.19 1.23 10.47 1.26 10.84C1.39 12.45 2.49 13.78 5.01 13.78C7.53 13.78 8.64 12.45 8.78 10.84C8.81 10.47 8.81 10.19 8.81 9.84ZM12.12 3.29L10.58 3.29L10.58 11.35C10.58 11.80 10.58 12.14 10.60 12.42C10.65 13.37 11.20 13.66 12.01 13.66C12.36 13.66 12.71 13.64 13.02 13.59L13.02 12.52C12.36 12.57 12.17 12.43 12.14 12.01C12.12 11.79 12.12 11.56 12.12 11.31ZM16.51 10.53L19.03 13.58L21.03 13.58L17.60 9.63L20.99 6.15L19.10 6.15L15.85 9.73L15.85 3.29L14.31 3.29L14.31 13.58L15.85 13.58L15.85 11.26ZM26.21 13.58L27.73 13.58C27.62 12.75 27.59 12.25 27.59 11.69L27.59 9.07C27.59 8.72 27.58 8.33 27.55 8.02C27.43 6.76 26.67 5.95 24.75 5.95C23.06 5.95 21.84 6.87 21.74 8.50L23.28 8.50C23.37 7.57 23.83 7.07 24.72 7.07C25.61 7.07 25.98 7.49 26.03 8.09C26.05 8.37 26.05 8.62 26.05 8.90L26.05 9.09L25.58 9.09C22.76 9.09 21.45 9.98 21.45 11.63C21.45 13.02 22.53 13.78 23.84 13.78C24.54 13.78 25.19 13.65 25.69 13.30L26.07 12.50ZM24.40 12.66C23.59 12.66 23.07 12.29 23.07 11.51C23.07 10.37 24.25 9.97 26.05 10.11L26.05 10.79C26.05 12.00 25.37 12.66 24.40 12.66Z"></path></g><!----><g data-v-423bf9ae="" id="64f93e59-2b01-48e9-ac4c-4ce51e1e96de" transform="matrix(2.5,0,0,2.5,-57.5,-57.5)" stroke="none" fill="black"><circle cx="41" cy="41" r="18"></circle><path d="M40 31.8v-1.4h2.3v1.4c2 .4 3.1 2 3.1 4.4v.6h-2.7V36c0-1.3-.5-1.8-1.4-1.8-.9 0-1.4.5-1.4 1.8 0 3.7 5.6 3.9 5.6 9.1 0 2.5-1.1 4.1-3.1 4.5V51H40v-1.3c-2.1-.4-3.1-2-3.1-4.5V44h2.7v1.4c0 1.3.6 1.8 1.5 1.8s1.5-.5 1.5-1.8c0-3.7-5.6-3.9-5.6-9.1 0-2.5 1-4 3-4.5z"></path></g><!----></svg>