<svg version="1.1" xmlns="http://www.w3.org/2000/svg" viewBox="0 0 817 905" width="817" height="905">
  <!-- svg-source:excalidraw -->
  
  <defs>
    <style class="style-fonts">
      @font-face {
        font-family: "Virgil";
        src: url("https://excalidraw.com/Virgil.woff2");
      }
      @font-face {
        font-family: "Cascadia";
        src: url("https://excalidraw.com/Cascadia.woff2");
      }
      @font-face {
        font-family: "Assistant";
        src: url("https://excalidraw.com/Assistant-Regular.woff2");
      }
    </style>
    
  </defs>
  <rect x="0" y="0" width="817" height="905" fill="#f8f9fa"></rect><g stroke-linecap="round" transform="translate(15 539) rotate(0 196.00000000000006 178)"><path d="M32 0 C116.06 1.26, 203.07 1.18, 360 0 M32 0 C146.3 1.74, 259.88 0.67, 360 0 M360 0 C380.68 -1.48, 392.15 9.07, 392 32 M360 0 C379.07 1.68, 390.1 12.12, 392 32 M392 32 C391.18 139.8, 391.51 245.89, 392 324 M392 32 C390.34 93.4, 390.76 155.63, 392 324 M392 324 C390.89 344.88, 380.52 355.92, 360 356 M392 324 C389.94 344.7, 379.37 353.98, 360 356 M360 356 C234.47 358.02, 109.04 357.04, 32 356 M360 356 C262.84 353.62, 164.86 353.79, 32 356 M32 356 C12.47 356.71, -1.9 344.95, 0 324 M32 356 C11.17 354.27, -1.01 346.49, 0 324 M0 324 C-0.1 216.76, 0 111.3, 0 32 M0 324 C-1.64 224.8, -0.48 126.71, 0 32 M0 32 C-0.19 10.49, 10.49 -0.43, 32 0 M0 32 C-0.15 10.63, 12.03 1.37, 32 0" stroke="#1e1e1e" stroke-width="2" fill="none"></path></g><g transform="translate(20 544.2) rotate(0 187.5 172.79999999999995)"><text x="0" y="15.45" font-family="Cascadia, Segoe UI Emoji" font-size="16px" fill="#1e1e1e" text-anchor="start" style="white-space: pre;" direction="ltr" dominant-baseline="alphabetic"></text><text x="0" y="34.65" font-family="Cascadia, Segoe UI Emoji" font-size="16px" fill="#1e1e1e" text-anchor="start" style="white-space: pre;" direction="ltr" dominant-baseline="alphabetic">pub_events</text><text x="0" y="53.849999999999994" font-family="Cascadia, Segoe UI Emoji" font-size="16px" fill="#1e1e1e" text-anchor="start" style="white-space: pre;" direction="ltr" dominant-baseline="alphabetic"></text><text x="0" y="73.05" font-family="Cascadia, Segoe UI Emoji" font-size="16px" fill="#1e1e1e" text-anchor="start" style="white-space: pre;" direction="ltr" dominant-baseline="alphabetic"></text><text x="0" y="92.25" font-family="Cascadia, Segoe UI Emoji" font-size="16px" fill="#1e1e1e" text-anchor="start" style="white-space: pre;" direction="ltr" dominant-baseline="alphabetic">{</text><text x="0" y="111.45" font-family="Cascadia, Segoe UI Emoji" font-size="16px" fill="#1e1e1e" text-anchor="start" style="white-space: pre;" direction="ltr" dominant-baseline="alphabetic">  title: string,</text><text x="0" y="130.64999999999998" font-family="Cascadia, Segoe UI Emoji" font-size="16px" fill="#1e1e1e" text-anchor="start" style="white-space: pre;" direction="ltr" dominant-baseline="alphabetic">  description: string, // markdown</text><text x="0" y="149.85" font-family="Cascadia, Segoe UI Emoji" font-size="16px" fill="#1e1e1e" text-anchor="start" style="white-space: pre;" direction="ltr" dominant-baseline="alphabetic">  thumbnails: mediaId[], //image/video</text><text x="0" y="169.04999999999998" font-family="Cascadia, Segoe UI Emoji" font-size="16px" fill="#1e1e1e" text-anchor="start" style="white-space: pre;" direction="ltr" dominant-baseline="alphabetic">  tags: string[],</text><text x="0" y="188.24999999999997" font-family="Cascadia, Segoe UI Emoji" font-size="16px" fill="#1e1e1e" text-anchor="start" style="white-space: pre;" direction="ltr" dominant-baseline="alphabetic">  mentions: string[],</text><text x="0" y="207.45" font-family="Cascadia, Segoe UI Emoji" font-size="16px" fill="#1e1e1e" text-anchor="start" style="white-space: pre;" direction="ltr" dominant-baseline="alphabetic">  scheduleTime: string,</text><text x="0" y="226.64999999999998" font-family="Cascadia, Segoe UI Emoji" font-size="16px" fill="#1e1e1e" text-anchor="start" style="white-space: pre;" direction="ltr" dominant-baseline="alphabetic">  eventStatus: string, //draft/published</text><text x="0" y="245.84999999999997" font-family="Cascadia, Segoe UI Emoji" font-size="16px" fill="#1e1e1e" text-anchor="start" style="white-space: pre;" direction="ltr" dominant-baseline="alphabetic">  lockDetailsUntilTimeComes: boolean,</text><text x="0" y="265.05" font-family="Cascadia, Segoe UI Emoji" font-size="16px" fill="#1e1e1e" text-anchor="start" style="white-space: pre;" direction="ltr" dominant-baseline="alphabetic">  createdBy: string,</text><text x="0" y="284.25" font-family="Cascadia, Segoe UI Emoji" font-size="16px" fill="#1e1e1e" text-anchor="start" style="white-space: pre;" direction="ltr" dominant-baseline="alphabetic">  createdAt: string,</text><text x="0" y="303.45" font-family="Cascadia, Segoe UI Emoji" font-size="16px" fill="#1e1e1e" text-anchor="start" style="white-space: pre;" direction="ltr" dominant-baseline="alphabetic">  updatedAt: string,</text><text x="0" y="322.65" font-family="Cascadia, Segoe UI Emoji" font-size="16px" fill="#1e1e1e" text-anchor="start" style="white-space: pre;" direction="ltr" dominant-baseline="alphabetic">  subscribers: userId[],</text><text x="0" y="341.84999999999997" font-family="Cascadia, Segoe UI Emoji" font-size="16px" fill="#1e1e1e" text-anchor="start" style="white-space: pre;" direction="ltr" dominant-baseline="alphabetic">}</text></g><g stroke-linecap="round" transform="translate(554 585) rotate(0 126.5 124)"><path d="M32 0 C106.28 -0.37, 182.01 -0.48, 221 0 M32 0 C70.77 2.23, 107.76 2.15, 221 0 M221 0 C242.72 0.9, 253.82 10.18, 253 32 M221 0 C240.31 -1.28, 250.91 9.28, 253 32 M253 32 C251.83 75.67, 252.12 120.18, 253 216 M253 32 C251.62 71.59, 252 110.23, 253 216 M253 216 C253.01 237.95, 242.5 247.19, 221 248 M253 216 C252.93 238.48, 240.51 248.89, 221 248 M221 248 C182.5 247.52, 138.49 246.42, 32 248 M221 248 C160.63 247.83, 99.44 246.25, 32 248 M32 248 C11.06 247.61, 0.52 238.93, 0 216 M32 248 C11.54 249.08, -1.48 235.43, 0 216 M0 216 C-1.54 173.73, -1.52 131.39, 0 32 M0 216 C0.62 161.47, 0.03 108.6, 0 32 M0 32 C-1.25 10.57, 9.05 1.97, 32 0 M0 32 C-0.62 10.87, 9.64 0.23, 32 0" stroke="#1e1e1e" stroke-width="2" fill="none"></path></g><g transform="translate(559 593.8) rotate(0 93.75 115.19999999999999)"><text x="0" y="15.45" font-family="Cascadia, Segoe UI Emoji" font-size="16px" fill="#1e1e1e" text-anchor="start" style="white-space: pre;" direction="ltr" dominant-baseline="alphabetic"></text><text x="0" y="34.65" font-family="Cascadia, Segoe UI Emoji" font-size="16px" fill="#1e1e1e" text-anchor="start" style="white-space: pre;" direction="ltr" dominant-baseline="alphabetic">media</text><text x="0" y="53.849999999999994" font-family="Cascadia, Segoe UI Emoji" font-size="16px" fill="#1e1e1e" text-anchor="start" style="white-space: pre;" direction="ltr" dominant-baseline="alphabetic"></text><text x="0" y="73.05" font-family="Cascadia, Segoe UI Emoji" font-size="16px" fill="#1e1e1e" text-anchor="start" style="white-space: pre;" direction="ltr" dominant-baseline="alphabetic">{</text><text x="0" y="92.25" font-family="Cascadia, Segoe UI Emoji" font-size="16px" fill="#1e1e1e" text-anchor="start" style="white-space: pre;" direction="ltr" dominant-baseline="alphabetic">  title: string,</text><text x="0" y="111.45" font-family="Cascadia, Segoe UI Emoji" font-size="16px" fill="#1e1e1e" text-anchor="start" style="white-space: pre;" direction="ltr" dominant-baseline="alphabetic">  alt: string,</text><text x="0" y="130.64999999999998" font-family="Cascadia, Segoe UI Emoji" font-size="16px" fill="#1e1e1e" text-anchor="start" style="white-space: pre;" direction="ltr" dominant-baseline="alphabetic">  gDriveUrl: string,</text><text x="0" y="149.85" font-family="Cascadia, Segoe UI Emoji" font-size="16px" fill="#1e1e1e" text-anchor="start" style="white-space: pre;" direction="ltr" dominant-baseline="alphabetic">  createdBy: string,</text><text x="0" y="169.04999999999998" font-family="Cascadia, Segoe UI Emoji" font-size="16px" fill="#1e1e1e" text-anchor="start" style="white-space: pre;" direction="ltr" dominant-baseline="alphabetic">  createdAt: string,</text><text x="0" y="188.24999999999997" font-family="Cascadia, Segoe UI Emoji" font-size="16px" fill="#1e1e1e" text-anchor="start" style="white-space: pre;" direction="ltr" dominant-baseline="alphabetic">  updatedAt: string,</text><text x="0" y="207.45" font-family="Cascadia, Segoe UI Emoji" font-size="16px" fill="#1e1e1e" text-anchor="start" style="white-space: pre;" direction="ltr" dominant-baseline="alphabetic"></text><text x="0" y="226.64999999999998" font-family="Cascadia, Segoe UI Emoji" font-size="16px" fill="#1e1e1e" text-anchor="start" style="white-space: pre;" direction="ltr" dominant-baseline="alphabetic">}</text></g><g stroke-linecap="round" transform="translate(14 130) rotate(0 277.99999999999994 171.5)"><path d="M32 0 C157.43 1.16, 281.44 1.97, 524 0 M32 0 C180.08 -1.53, 327.9 -2.19, 524 0 M524 0 C544.38 0.13, 557.93 8.85, 556 32 M524 0 C543.98 -0.75, 554.3 10.84, 556 32 M556 32 C552.62 94.43, 554.92 154.13, 556 311 M556 32 C556.73 131.82, 555.74 231.58, 556 311 M556 311 C554.18 331.13, 544.13 342.93, 524 343 M556 311 C555.78 331.06, 544.81 342.06, 524 343 M524 343 C377.66 341.72, 233.42 342.03, 32 343 M524 343 C341.59 343.46, 159.1 343.83, 32 343 M32 343 C9.09 343.77, -1.74 331.52, 0 311 M32 343 C9.22 345.08, 0.81 330.15, 0 311 M0 311 C-1.15 233.48, 0.55 154.69, 0 32 M0 311 C-0.22 253.67, -0.13 195.48, 0 32 M0 32 C-1.29 9.01, 9.24 1.46, 32 0 M0 32 C0.17 10.44, 10.46 -0.2, 32 0" stroke="#1e1e1e" stroke-width="2" fill="none"></path></g><g transform="translate(19 147.9) rotate(0 267.1875 153.60000000000002)"><text x="0" y="15.45" font-family="Cascadia, Segoe UI Emoji" font-size="16px" fill="#1e1e1e" text-anchor="start" style="white-space: pre;" direction="ltr" dominant-baseline="alphabetic">users</text><text x="0" y="34.65" font-family="Cascadia, Segoe UI Emoji" font-size="16px" fill="#1e1e1e" text-anchor="start" style="white-space: pre;" direction="ltr" dominant-baseline="alphabetic"></text><text x="0" y="53.849999999999994" font-family="Cascadia, Segoe UI Emoji" font-size="16px" fill="#1e1e1e" text-anchor="start" style="white-space: pre;" direction="ltr" dominant-baseline="alphabetic">{</text><text x="0" y="73.05" font-family="Cascadia, Segoe UI Emoji" font-size="16px" fill="#1e1e1e" text-anchor="start" style="white-space: pre;" direction="ltr" dominant-baseline="alphabetic">  fullName: string,</text><text x="0" y="92.25" font-family="Cascadia, Segoe UI Emoji" font-size="16px" fill="#1e1e1e" text-anchor="start" style="white-space: pre;" direction="ltr" dominant-baseline="alphabetic">  userName: string,</text><text x="0" y="111.45" font-family="Cascadia, Segoe UI Emoji" font-size="16px" fill="#1e1e1e" text-anchor="start" style="white-space: pre;" direction="ltr" dominant-baseline="alphabetic">  email: string,</text><text x="0" y="130.64999999999998" font-family="Cascadia, Segoe UI Emoji" font-size="16px" fill="#1e1e1e" text-anchor="start" style="white-space: pre;" direction="ltr" dominant-baseline="alphabetic">  phone: string,</text><text x="0" y="149.85" font-family="Cascadia, Segoe UI Emoji" font-size="16px" fill="#1e1e1e" text-anchor="start" style="white-space: pre;" direction="ltr" dominant-baseline="alphabetic">  timeZone: string,</text><text x="0" y="169.04999999999998" font-family="Cascadia, Segoe UI Emoji" font-size="16px" fill="#1e1e1e" text-anchor="start" style="white-space: pre;" direction="ltr" dominant-baseline="alphabetic">  profilePic: ulkaMediaId/string,</text><text x="0" y="188.24999999999997" font-family="Cascadia, Segoe UI Emoji" font-size="16px" fill="#1e1e1e" text-anchor="start" style="white-space: pre;" direction="ltr" dominant-baseline="alphabetic">  pubEvents: pub_eventsId[],</text><text x="0" y="207.45" font-family="Cascadia, Segoe UI Emoji" font-size="16px" fill="#1e1e1e" text-anchor="start" style="white-space: pre;" direction="ltr" dominant-baseline="alphabetic">  media: ulka_mediaId[],</text><text x="0" y="226.64999999999998" font-family="Cascadia, Segoe UI Emoji" font-size="16px" fill="#1e1e1e" text-anchor="start" style="white-space: pre;" direction="ltr" dominant-baseline="alphabetic">  subscriptions: { type: event/people, refId: string }[],</text><text x="0" y="245.84999999999997" font-family="Cascadia, Segoe UI Emoji" font-size="16px" fill="#1e1e1e" text-anchor="start" style="white-space: pre;" direction="ltr" dominant-baseline="alphabetic">  createdAt: string,</text><text x="0" y="265.05" font-family="Cascadia, Segoe UI Emoji" font-size="16px" fill="#1e1e1e" text-anchor="start" style="white-space: pre;" direction="ltr" dominant-baseline="alphabetic">  updatedAt: string,</text><text x="0" y="284.25" font-family="Cascadia, Segoe UI Emoji" font-size="16px" fill="#1e1e1e" text-anchor="start" style="white-space: pre;" direction="ltr" dominant-baseline="alphabetic"></text><text x="0" y="303.45" font-family="Cascadia, Segoe UI Emoji" font-size="16px" fill="#1e1e1e" text-anchor="start" style="white-space: pre;" direction="ltr" dominant-baseline="alphabetic">}</text></g><g transform="translate(13 10) rotate(0 58.59375 12)"><text x="0" y="19.3125" font-family="Cascadia, Segoe UI Emoji" font-size="20px" fill="#1e1e1e" text-anchor="start" style="white-space: pre;" direction="ltr" dominant-baseline="alphabetic">Ulka 0.1.0</text></g><g transform="translate(10 57) rotate(0 58.59375 12)"><text x="0" y="19.3125" font-family="Cascadia, Segoe UI Emoji" font-size="20px" fill="#1e1e1e" text-anchor="start" style="white-space: pre;" direction="ltr" dominant-baseline="alphabetic">DB schemas</text></g><g stroke-linecap="round"><g transform="translate(549 686.4732524354813) rotate(0 -84 1.2633737822593503)"><path d="M0 0 C-28 0.42, -140 2.11, -168 2.53 M0 0 C-28 0.42, -140 2.11, -168 2.53" stroke="#1971c2" stroke-width="2" fill="none"></path></g><g transform="translate(549 686.4732524354813) rotate(0 -84 1.2633737822593503)"><path d="M-144.64 -6.38 C-152.81 -3.26, -160.98 -0.15, -168 2.53 M-144.64 -6.38 C-149.52 -4.52, -154.39 -2.66, -168 2.53" stroke="#1971c2" stroke-width="2" fill="none"></path></g><g transform="translate(549 686.4732524354813) rotate(0 -84 1.2633737822593503)"><path d="M-144.38 10.72 C-152.64 7.86, -160.9 4.99, -168 2.53 M-144.38 10.72 C-149.31 9.01, -154.24 7.3, -168 2.53" stroke="#1971c2" stroke-width="2" fill="none"></path></g></g><mask></mask></svg>